Coordinates
version=1
nRows=16
nColumns=38
inDegrees=no

Units are S.I. units (second, meters, Newtons, ...)
If the header above contains a line with 'inDegrees', this indicates whether rotational values are in degrees (yes) or radians (no).

endheader
time	pelvis_tilt	pelvis_list	pelvis_rotation	pelvis_tx	pelvis_ty	pelvis_tz	hip_flexion_r	hip_adduction_r	hip_rotation_r	knee_angle_r	ankle_angle_r	subtalar_angle_r	mtp_angle_r	hip_flexion_l	hip_adduction_l	hip_rotation_l	knee_angle_l	ankle_angle_l	subtalar_angle_l	mtp_angle_l	lumbar_extension	lumbar_bending	lumbar_rotation	arm_flex_r	arm_add_r	arm_rot_r	elbow_flex_r	pro_sup_r	wrist_flex_r	wrist_dev_r	arm_flex_l	arm_add_l	arm_rot_l	elbow_flex_l	pro_sup_l	wrist_flex_l	wrist_dev_l
0	1.78066	1.53254	2.95188	0.667222	1.85732	0.963756	-0.0610747	-0.0586277	-0.174994	0.0248945	0.00608598	0	0	-0.0961635	0.0748019	-0.233453	0	0.020125	0	0	0.0203069	-0.0304233	0.0413079	-0.0233553	-0.105799	0.0557606	0.361342	1.5708	0	0	0.00474255	-0.112395	0.587833	0.408875	0.95512	0	0
0.01	1.69856	1.53435	3.03423	0.667273	1.8573	0.963768	-0.0614023	-0.0582778	-0.183243	0.0320884	0.0115272	0	0	-0.0993363	0.0734317	-0.232934	0	0.0216394	0	0	0.0153416	-0.0247658	0.0397738	0.012053	-0.0937183	-0.00391165	0.294378	1.5708	0	0	0.00231253	-0.105786	0.591483	0.409875	0.948822	0	0
0.02	1.73244	1.53424	3.00096	0.667251	1.85719	0.963698	-0.060069	-0.0580375	-0.183644	0.03236	0.0115364	0	0	-0.0967892	0.0731231	-0.232611	0	0.0226905	0	0	0.0170911	-0.0235285	0.0389274	0.0182483	-0.0922475	-0.0138925	0.287699	1.5708	0	0	0.0010281	-0.100474	0.581461	0.405457	0.951979	0	0
0.03	1.74799	1.53419	2.98529	0.667145	1.85714	0.963712	-0.0588735	-0.057855	-0.183466	0.0334013	0.0116096	0	0	-0.0951461	0.072891	-0.232695	0	0.0233101	0	0	0.0176794	-0.0219809	0.0379988	0.023188	-0.0922096	-0.0131735	0.285359	1.5708	0	0	0.000953358	-0.091592	0.536566	0.394077	0.993343	0	0
0.04	1.75487	1.53445	2.97703	0.666926	1.85709	0.96381	-0.0577874	-0.0574753	-0.181866	0.034693	0.0113919	0	0	-0.09424	0.072548	-0.233232	0	0.0234722	0	0	0.0185695	-0.0193715	0.0400802	0.0250269	-0.0937009	-0.00608087	0.28773	1.5708	0	0	0.00232888	-0.0821791	0.481554	0.381308	1.06374	0	0
0.05	1.67317	1.53547	3.0575	0.66689	1.85689	0.96387	-0.0615528	-0.0569026	-0.180598	0.0340864	0.0116572	0	0	-0.0976236	0.0721539	-0.234362	0	0.0246325	0	0	0.0153212	-0.0214439	0.0422011	0.0255603	-0.0944824	0.0027761	0.29375	1.5708	0	0	0.00201621	-0.0824984	0.46089	0.385703	1.08893	0	0
0.06	1.66358	1.53488	3.06674	0.666737	1.85667	0.963885	-0.062402	-0.0574936	-0.180204	0.0335478	0.011908	0	0	-0.0970299	0.0725488	-0.235561	0.00169558	0.0257683	0	0	0.0164761	-0.0220691	0.0451039	0.0240947	-0.0950884	0.00866113	0.29983	1.5708	0	0	0.000554865	-0.0850239	0.452916	0.393797	1.09983	0	0
0.07	1.66278	1.53436	3.06743	0.666607	1.8565	0.963862	-0.0631486	-0.0579562	-0.179737	0.0325346	0.0120828	0	0	-0.0960217	0.0727636	-0.236194	0.00402403	0.0270222	0	0	0.017838	-0.0225438	0.0476451	0.022541	-0.0955657	0.011338	0.30561	1.5708	0	0	-0.000834719	-0.0888377	0.451974	0.403432	1.10044	0	0
0.08	1.41953	1.53786	-2.97948	0.664609	1.85544	0.964525	-0.0763254	-0.0506886	-0.170754	0.0242652	0.00752673	0	0	-0.110122	0.0673972	-0.2319	0	0.0254197	0	0	0.0114864	-0.0202805	0.0570244	0.020285	-0.093611	0.0128083	0.311595	1.5708	0	0	-0.00257103	-0.0979339	0.464534	0.418127	1.08279	0	0
0.09	1.6404	1.53449	3.09045	0.666419	1.85626	0.963886	-0.0667359	-0.0572842	-0.178079	0.0281614	0.0103343	0	0	-0.0955587	0.0720091	-0.235746	0.00699258	0.0284844	0	0	0.0192252	-0.0223147	0.0519929	0.0187422	-0.0962779	0.0134236	0.318517	1.5708	0	0	-0.000850915	-0.0989625	0.468236	0.423199	1.07524	0	0
0.1	1.66868	1.53426	3.06262	0.666366	1.85619	0.963782	-0.0654094	-0.0576275	-0.180449	0.0291767	0.0116866	0	0	-0.0928716	0.0716833	-0.236924	0.0101436	0.0304129	0	0	0.0215132	-0.0223938	0.0540242	0.0150068	-0.097541	0.0205833	0.328139	1.5708	0	0	-0.000260336	-0.106512	0.48934	0.435354	1.03946	0	0
0.11	1.66515	1.5342	3.06665	0.666349	1.85609	0.963767	-0.0663901	-0.0577082	-0.18087	0.0280801	0.0115198	0	0	-0.0920212	0.0714748	-0.23717	0.0121706	0.0314728	0	0	0.0221851	-0.0222724	0.0554608	0.0127825	-0.0981258	0.0239913	0.335105	1.5708	0	0	0.00107153	-0.113234	0.504985	0.444748	1.01487	0	0
0.12	1.65923	1.53426	3.0729	0.666339	1.85597	0.96376	-0.0676125	-0.0576734	-0.180905	0.0267002	0.0112166	0	0	-0.091333	0.0711914	-0.237109	0.014208	0.0326398	0	0	0.0226983	-0.0219812	0.0564613	0.0108533	-0.0987678	0.0284432	0.341397	1.5708	0	0	0.00305211	-0.118987	0.517538	0.451016	0.996488	0	0
0.13	1.65688	1.53442	3.07545	0.666332	1.85584	0.963752	-0.0686389	-0.0575508	-0.180805	0.0254255	0.0110713	0	0	-0.0904493	0.0707689	-0.236889	0.0164838	0.034097	0	0	0.0232115	-0.0215159	0.0570063	0.00913983	-0.0995138	0.0347456	0.34732	1.5708	0	0	0.00516794	-0.123772	0.525789	0.454852	0.987373	0	0
0.14	1.65608	1.53443	3.07636	0.666369	1.85573	0.963736	-0.0692682	-0.0576466	-0.180936	0.0247118	0.0111351	0	0	-0.0896126	0.070601	-0.2364	0.0184729	0.0354409	0	0	0.023533	-0.0211413	0.0572452	0.00757145	-0.100532	0.0432382	0.353232	1.5708	0	0	0.00737665	-0.127647	0.531291	0.457403	0.983462	0	0
0.15	1.65813	1.53435	3.07436	0.666451	1.85566	0.963703	-0.0696628	-0.0579534	-0.180936	0.0241351	0.0113461	0	0	-0.0884132	0.0705628	-0.23637	0.0208434	0.037015	0	0	0.0237734	-0.0208147	0.0572843	0.00678077	-0.101309	0.0497045	0.356875	1.5708	0	0	0.00950691	-0.13087	0.534689	0.459487	0.983603	0	0
